<svg width="26" height="32" viewBox="0 0 26 32" fill="none" xmlns="http://www.w3.org/2000/svg">
<path d="M25.7982 31.2632H11.4202C9.97051 31.2632 8.63965 31.1325 7.4395 30.883C6.23935 30.6215 5.21744 30.2056 4.36189 29.6234C3.50634 29.0411 2.84091 28.2569 2.37749 27.2944C1.90218 26.32 1.67641 25.1317 1.67641 23.7058C1.67641 22.1967 2.03289 20.9134 2.74585 19.8796C3.45881 18.8339 4.48072 17.9903 5.82346 17.3367C3.946 16.7901 2.53196 15.8514 1.60511 14.4968C0.678265 13.1421 0.214844 11.5142 0.214844 9.60111C0.214844 8.05637 0.511913 6.72551 1.11793 5.59666C1.71206 4.46781 2.52008 3.55285 3.53011 2.83989C4.54013 2.12693 5.69275 1.60409 6.99984 1.25949C8.29505 0.914893 9.62591 0.748535 11.0043 0.748535H25.7982V31.2632ZM19.0726 18.9052H12.2757C11.0756 18.9052 10.0893 19.1904 9.32884 19.7608C8.55647 20.3312 8.17622 21.258 8.17622 22.5413C8.17622 23.2543 8.30693 23.8365 8.55647 24.3C8.81789 24.7515 9.1506 25.108 9.57838 25.3694C10.0062 25.6308 10.4933 25.8091 11.0518 25.9041C11.6103 25.9992 12.1807 26.0586 12.7867 26.0586H19.0726V18.9052ZM19.0726 5.94125H11.8836C11.2301 5.94125 10.6003 6.00067 10.0062 6.13138C9.41202 6.26209 8.8773 6.47598 8.42576 6.77304C7.97422 7.07011 7.60586 7.47412 7.33255 7.99695C7.05925 8.50791 6.92855 9.16146 6.92855 9.96948C6.92855 11.538 7.3682 12.655 8.2594 13.3323C9.13872 13.9977 10.3151 14.3423 11.7648 14.3423H19.0845V5.94125H19.0726Z" fill="white"/>
</svg>
