<svg width="33" height="32" viewBox="0 0 33 32" fill="none" xmlns="http://www.w3.org/2000/svg">
<path d="M32.1292 15.8634C32.1292 18.0617 31.7133 20.1174 30.8696 22.0186C30.026 23.9318 28.8971 25.5953 27.4712 27.0212C26.0453 28.4472 24.3698 29.576 22.4448 30.3959C20.5198 31.2277 18.476 31.6317 16.3015 31.6317C14.1032 31.6317 12.0475 31.2158 10.1463 30.3959C8.23316 29.5641 6.5696 28.4472 5.14368 27.0212C3.71776 25.5953 2.5889 23.9318 1.76899 22.0186C0.937206 20.1055 0.533203 18.0617 0.533203 15.8634C0.533203 13.6651 0.949088 11.6094 1.76899 9.68444C2.60078 7.75945 3.71776 6.084 5.14368 4.65808C6.5696 3.23217 8.23316 2.10331 10.1463 1.2834C12.0594 0.451619 14.1151 0.0476074 16.3015 0.0476074C18.4641 0.0476074 20.5198 0.463502 22.4448 1.2834C24.3698 2.11519 26.0453 3.23217 27.4712 4.65808C28.8971 6.084 30.026 7.75945 30.8696 9.68444C31.7014 11.6094 32.1292 13.677 32.1292 15.8634ZM16.3015 6.49989C15.0182 6.49989 13.818 6.74943 12.6892 7.2485C11.5603 7.74758 10.574 8.42489 9.74226 9.28044C8.89859 10.136 8.23316 11.1222 7.73409 12.2511C7.23502 13.38 6.98548 14.5801 6.98548 15.8634C6.98548 17.1468 7.23502 18.3469 7.73409 19.4758C8.23316 20.6046 8.89859 21.5909 9.74226 22.4227C10.5859 23.2663 11.5722 23.9318 12.6892 24.4308C13.818 24.9299 15.0182 25.1794 16.3015 25.1794C17.5848 25.1794 18.785 24.9299 19.89 24.4308C21.007 23.9318 21.9814 23.2663 22.8251 22.4227C23.6687 21.579 24.3342 20.5927 24.8095 19.4758C25.2967 18.3469 25.5343 17.1468 25.5343 15.8634C25.5343 14.5801 25.2967 13.38 24.8095 12.2511C24.3223 11.1222 23.6569 10.136 22.8251 9.28044C21.9814 8.42489 21.007 7.74758 19.89 7.2485C18.785 6.74943 17.5848 6.49989 16.3015 6.49989Z" fill="white"/>
</svg>
