<svg width="26" height="32" viewBox="0 0 26 32" fill="none" xmlns="http://www.w3.org/2000/svg">
<path d="M17.5757 19.9748H17.8371L25.751 31.3108H18.1817L10.4818 20.3194H7.19026V31.3108H0.476562V0.724854H14.2129C16.126 0.724854 17.7539 0.99816 19.1086 1.55665C20.4632 2.11513 21.5683 2.85185 22.4238 3.75494C23.2794 4.6699 23.8973 5.71558 24.2894 6.90384C24.6696 8.09211 24.8717 9.29226 24.8717 10.5162C24.8717 11.5381 24.7291 12.56 24.4439 13.57C24.1587 14.58 23.719 15.5188 23.1368 16.3743C22.5545 17.2299 21.8059 17.9666 20.891 18.5964C19.9522 19.238 18.859 19.6896 17.5757 19.9748ZM12.3949 5.94134H7.17838V15.1385H12.3949C13.191 15.1385 13.9515 15.0791 14.6645 14.9722C15.3774 14.8533 15.9953 14.6276 16.53 14.283C17.0529 13.9384 17.4806 13.4749 17.7896 12.8689C18.0985 12.2748 18.2649 11.4905 18.2649 10.5162C18.2649 9.51803 18.1104 8.72188 17.7896 8.11587C17.4806 7.52174 17.0529 7.05831 16.53 6.7256C16.0072 6.39289 15.3774 6.179 14.6645 6.08394C13.9515 5.98887 13.191 5.94134 12.3949 5.94134Z" fill="white"/>
</svg>
