<svg width="27" height="32" viewBox="0 0 27 32" fill="none" xmlns="http://www.w3.org/2000/svg">
<path d="M0.632009 10.8608C0.608244 8.9833 0.952846 7.35537 1.67769 5.98886C2.40253 4.62236 3.36502 3.49351 4.56517 2.61419C5.76532 1.73487 7.15558 1.06944 8.73597 0.641665C10.3164 0.213889 11.9562 0 13.6316 0C15.7111 0 17.541 0.249542 19.1333 0.748613C20.7137 1.24768 22.0446 1.93687 23.114 2.80431C24.1834 3.67174 24.9915 4.70553 25.5262 5.90568C26.0728 7.10583 26.3342 8.40104 26.3342 9.80319C26.3342 10.9439 26.1678 11.954 25.8232 12.8214C25.4786 13.6888 25.0271 14.4374 24.4805 15.0672C23.922 15.697 23.316 16.2198 22.6387 16.6476C21.9733 17.0754 21.296 17.42 20.6305 17.6933C19.9651 17.9666 19.3234 18.1805 18.7293 18.3349C18.1352 18.4894 17.648 18.6083 17.2796 18.7033C15.3665 19.1905 13.8218 19.5945 12.6335 19.9272C11.4452 20.2599 10.5184 20.5689 9.85295 20.866C9.18752 21.163 8.73599 21.4957 8.51022 21.876C8.28445 22.2443 8.16561 22.7315 8.16561 23.3257C8.16561 23.9554 8.3082 24.4902 8.59339 24.9298C8.87857 25.3695 9.24693 25.7378 9.68659 26.023C10.1262 26.3082 10.6253 26.5102 11.16 26.6172C11.7066 26.736 12.2414 26.7835 12.788 26.7835C13.5841 26.7835 14.3446 26.7122 15.0576 26.5696C15.7705 26.427 16.4003 26.1894 16.935 25.8448C17.4816 25.5002 17.9094 25.0368 18.2421 24.4308C18.5748 23.8366 18.7649 23.0761 18.8244 22.1612H25.3242C25.3242 23.9317 24.9915 25.4289 24.3141 26.6766C23.6487 27.9124 22.7338 28.9343 21.593 29.7304C20.4523 30.5266 19.1452 31.1088 17.6836 31.4653C16.2102 31.8218 14.6773 32 13.085 32C11.7185 32 10.352 31.8099 8.97364 31.4415C7.60714 31.0732 6.38321 30.5028 5.29001 29.7304C4.20869 28.958 3.32938 27.9956 2.66395 26.8429C1.99852 25.6903 1.65392 24.3238 1.65392 22.7553C1.65392 21.3294 1.91533 20.1292 2.45005 19.1667C2.97289 18.1924 3.67397 17.3843 4.52952 16.7308C5.38507 16.0772 6.35945 15.5425 7.44077 15.1266C8.52209 14.7107 9.63906 14.3661 10.7798 14.081C11.8968 13.772 12.99 13.4868 14.0713 13.2492C15.1526 13.0115 16.127 12.7026 16.9825 12.3461C17.8381 11.9896 18.5273 11.5499 19.062 11.039C19.5848 10.528 19.8581 9.85073 19.8581 9.03083C19.8581 8.25846 19.6561 7.62867 19.264 7.1296C18.86 6.63052 18.3609 6.2384 17.7668 5.95321C17.1727 5.66803 16.531 5.47791 15.8418 5.37097C15.1526 5.27591 14.5109 5.2165 13.9168 5.2165C13.0018 5.2165 12.1463 5.32344 11.3264 5.53732C10.5184 5.75121 9.80542 6.08393 9.18752 6.52359C8.56962 6.96324 8.08244 7.54549 7.71408 8.25845C7.34572 8.97141 7.1556 9.83884 7.1556 10.8726H0.632009V10.8608Z" fill="white"/>
</svg>
