<svg width="60" height="32" viewBox="0 0 60 32" fill="none" xmlns="http://www.w3.org/2000/svg">
<path fill-rule="evenodd" clip-rule="evenodd" d="M1.0631 1.06667C1.65065 0.477563 2.60326 0.477563 3.1908 1.06667L30.8509 28.8C31.4385 29.3891 31.4385 30.3442 30.8509 30.9333C30.2634 31.5224 29.3108 31.5224 28.7232 30.9333L1.0631 3.2C0.475553 2.6109 0.475553 1.65577 1.0631 1.06667Z" fill="white"/>
<path fill-rule="evenodd" clip-rule="evenodd" d="M29.1478 30.9334C28.5603 30.3443 28.5603 29.3891 29.1478 28.8L56.808 1.0667C57.3955 0.477597 58.3481 0.477597 58.9357 1.0667C59.5232 1.6558 59.5232 2.61093 58.9357 3.20003L31.2755 30.9334C30.688 31.5225 29.7354 31.5225 29.1478 30.9334Z" fill="white"/>
</svg>
