<svg width="33" height="60" viewBox="0 0 33 60" fill="none" xmlns="http://www.w3.org/2000/svg">
<path fill-rule="evenodd" clip-rule="evenodd" d="M1.56667 58.9364C0.977563 58.3489 0.977563 57.3963 1.56667 56.8087L29.3 29.1486C29.8891 28.561 30.8442 28.561 31.4333 29.1486C32.0224 29.7361 32.0224 30.6887 31.4333 31.2763L3.7 58.9364C3.1109 59.524 2.15577 59.524 1.56667 58.9364Z" fill="white"/>
<path fill-rule="evenodd" clip-rule="evenodd" d="M31.4339 30.8517C30.8448 31.4392 29.8896 31.4392 29.3005 30.8517L1.56719 3.19155C0.978082 2.604 0.978083 1.65139 1.56719 1.06385C2.15629 0.476297 3.11142 0.476296 3.70052 1.06384L31.4339 28.724C32.023 29.3115 32.023 30.2641 31.4339 30.8517Z" fill="white"/>
</svg>
