<svg width="151" height="12" viewBox="0 0 151 12" fill="none" xmlns="http://www.w3.org/2000/svg">
<path d="M3.832 11.76V1.816H0V0.24H9.336V1.816H5.504V11.76H3.832Z" fill="white"/>
<path d="M10.9362 11.76V0.24H15.5923C15.7043 0.24 15.8429 0.245333 16.0083 0.256C16.1736 0.261333 16.3309 0.277333 16.4803 0.304C17.1203 0.405333 17.6536 0.624 18.0802 0.96C18.5123 1.296 18.8349 1.72 19.0483 2.232C19.2616 2.744 19.3682 3.30933 19.3682 3.928C19.3682 4.84533 19.1336 5.63733 18.6642 6.304C18.1949 6.96533 17.4909 7.37867 16.5522 7.544L15.8722 7.624H12.6082V11.76H10.9362ZM17.6723 11.76L15.4002 7.072L17.0882 6.64L19.5843 11.76H17.6723ZM12.6082 6.04H15.5282C15.6349 6.04 15.7522 6.03467 15.8802 6.024C16.0136 6.01333 16.1389 5.99467 16.2563 5.968C16.5976 5.888 16.8722 5.74133 17.0802 5.528C17.2882 5.30933 17.4376 5.05867 17.5282 4.776C17.6189 4.49333 17.6642 4.21067 17.6642 3.928C17.6642 3.64533 17.6189 3.36533 17.5282 3.088C17.4376 2.80533 17.2882 2.55733 17.0802 2.344C16.8722 2.12533 16.5976 1.976 16.2563 1.896C16.1389 1.864 16.0136 1.84267 15.8802 1.832C15.7522 1.82133 15.6349 1.816 15.5282 1.816H12.6082V6.04Z" fill="white"/>
<path d="M21.6625 11.76V0.24H29.0225V1.816H23.3345V5.048H28.0625V6.624H23.3345V10.184H29.0225V11.76H21.6625Z" fill="white"/>
<path d="M33.9678 11.76L30.2237 0.24H31.9598L35.1517 10.072L38.3838 0.24H40.1198L36.3758 11.76H33.9678Z" fill="white"/>
<path d="M41.8062 11.76V0.24H43.4782V11.76H41.8062Z" fill="white"/>
<path d="M50.3766 12C49.55 12 48.8033 11.8587 48.1366 11.576C47.4753 11.288 46.9286 10.88 46.4966 10.352C46.07 9.81867 45.7926 9.18667 45.6646 8.456L47.4086 8.192C47.5846 8.896 47.9526 9.44533 48.5126 9.84C49.0726 10.2293 49.726 10.424 50.4726 10.424C50.9366 10.424 51.3633 10.352 51.7526 10.208C52.142 10.0587 52.454 9.848 52.6886 9.576C52.9286 9.29867 53.0486 8.968 53.0486 8.584C53.0486 8.376 53.0113 8.192 52.9366 8.032C52.8673 7.872 52.7686 7.73333 52.6406 7.616C52.518 7.49333 52.366 7.38933 52.1846 7.304C52.0086 7.21333 51.814 7.136 51.6006 7.072L48.6486 6.2C48.3606 6.11467 48.0673 6.00533 47.7686 5.872C47.47 5.73333 47.1953 5.55467 46.9446 5.336C46.6993 5.112 46.4993 4.83733 46.3446 4.512C46.19 4.18133 46.1126 3.78133 46.1126 3.312C46.1126 2.60267 46.294 2.00267 46.6566 1.512C47.0246 1.016 47.5206 0.642666 48.1446 0.391999C48.7686 0.135999 49.4673 0.00799942 50.2406 0.00799942C51.0193 0.018666 51.7153 0.157333 52.3286 0.424C52.9473 0.690666 53.4593 1.07467 53.8646 1.576C54.2753 2.072 54.558 2.67467 54.7126 3.384L52.9206 3.688C52.8406 3.256 52.67 2.88533 52.4086 2.576C52.1473 2.26133 51.8273 2.02133 51.4486 1.856C51.07 1.68533 50.6593 1.59733 50.2166 1.592C49.79 1.58133 49.398 1.64533 49.0406 1.784C48.6886 1.92267 48.406 2.11733 48.1926 2.368C47.9846 2.61867 47.8806 2.90667 47.8806 3.232C47.8806 3.552 47.974 3.81067 48.1606 4.008C48.3473 4.20533 48.5766 4.36267 48.8486 4.48C49.126 4.592 49.4006 4.68533 49.6726 4.76L51.8006 5.36C52.0673 5.43467 52.3686 5.536 52.7046 5.664C53.046 5.78667 53.374 5.96 53.6886 6.184C54.0086 6.408 54.2726 6.70667 54.4806 7.08C54.6886 7.448 54.7926 7.912 54.7926 8.472C54.7926 9.05333 54.6753 9.56533 54.4406 10.008C54.206 10.4453 53.8833 10.8133 53.4726 11.112C53.0673 11.4053 52.598 11.6267 52.0646 11.776C51.5313 11.9253 50.9686 12 50.3766 12Z" fill="white"/>
<path d="M61.6255 12C60.4735 12 59.4922 11.7493 58.6815 11.248C57.8708 10.7413 57.2495 10.0373 56.8175 9.136C56.3908 8.23467 56.1775 7.18933 56.1775 6C56.1775 4.81067 56.3908 3.76533 56.8175 2.864C57.2495 1.96267 57.8708 1.26133 58.6815 0.759999C59.4922 0.253333 60.4735 0 61.6255 0C62.7722 0 63.7508 0.253333 64.5615 0.759999C65.3775 1.26133 65.9988 1.96267 66.4255 2.864C66.8522 3.76533 67.0655 4.81067 67.0655 6C67.0655 7.18933 66.8522 8.23467 66.4255 9.136C65.9988 10.0373 65.3775 10.7413 64.5615 11.248C63.7508 11.7493 62.7722 12 61.6255 12ZM61.6255 10.408C62.4415 10.4187 63.1188 10.24 63.6575 9.872C64.2015 9.49867 64.6095 8.98133 64.8815 8.32C65.1535 7.65333 65.2895 6.88 65.2895 6C65.2895 5.12 65.1535 4.352 64.8815 3.696C64.6095 3.03467 64.2015 2.52 63.6575 2.152C63.1188 1.784 62.4415 1.59733 61.6255 1.592C60.8095 1.58133 60.1295 1.76 59.5855 2.128C59.0468 2.496 58.6415 3.01333 58.3695 3.68C58.0975 4.34667 57.9588 5.12 57.9535 6C57.9482 6.88 58.0815 7.65067 58.3535 8.312C58.6255 8.968 59.0335 9.48 59.5775 9.848C60.1268 10.216 60.8095 10.4027 61.6255 10.408Z" fill="white"/>
<path d="M70.9369 11.76L67.5929 0.24H69.3449L71.7689 8.952L74.1929 0.248L75.9529 0.24L78.3769 8.952L80.8009 0.24H82.5609L79.2089 11.76H77.5449L75.0729 3.144L72.6009 11.76H70.9369Z" fill="white"/>
<path d="M84.3831 11.76V0.24H86.0551V11.76H84.3831Z" fill="white"/>
<path d="M88.7775 11.76V0.24H90.4735L96.1455 8.8V0.24H97.8415V11.76H96.1455L90.4735 3.192V11.76H88.7775Z" fill="white"/>
<path d="M100.394 11.76V0.24H107.754V1.816H102.066V5.048H106.794V6.624H102.066V10.184H107.754V11.76H100.394Z" fill="white"/>
<path d="M114.397 12C113.245 12 112.264 11.7493 111.453 11.248C110.643 10.7413 110.021 10.0373 109.589 9.136C109.163 8.23467 108.949 7.18933 108.949 6C108.949 4.81067 109.163 3.76533 109.589 2.864C110.021 1.96267 110.643 1.26133 111.453 0.759999C112.264 0.253333 113.245 0 114.397 0C115.725 0 116.824 0.336 117.693 1.008C118.568 1.68 119.176 2.584 119.517 3.72L117.821 4.176C117.597 3.37067 117.197 2.73867 116.621 2.28C116.051 1.82133 115.309 1.592 114.397 1.592C113.581 1.592 112.901 1.776 112.357 2.144C111.813 2.512 111.403 3.02667 111.125 3.688C110.853 4.34933 110.717 5.12 110.717 6C110.712 6.88 110.845 7.65067 111.117 8.312C111.395 8.97333 111.805 9.488 112.349 9.856C112.899 10.224 113.581 10.408 114.397 10.408C115.309 10.408 116.051 10.1787 116.621 9.72C117.197 9.256 117.597 8.624 117.821 7.824L119.517 8.28C119.176 9.416 118.568 10.32 117.693 10.992C116.824 11.664 115.725 12 114.397 12Z" fill="white"/>
<path d="M121.757 11.76V0.24H123.429V10.184H128.645V11.76H121.757Z" fill="white"/>
<path d="M134.915 12C134.014 12 133.216 11.816 132.523 11.448C131.835 11.0747 131.296 10.5547 130.907 9.888C130.518 9.216 130.323 8.42667 130.323 7.52V0.248L132.019 0.24V7.432C132.019 7.92267 132.102 8.35467 132.267 8.728C132.432 9.10133 132.654 9.41333 132.931 9.664C133.208 9.91467 133.518 10.104 133.859 10.232C134.206 10.36 134.558 10.424 134.915 10.424C135.278 10.424 135.63 10.36 135.971 10.232C136.318 10.0987 136.63 9.90667 136.907 9.656C137.184 9.40533 137.403 9.09333 137.563 8.72C137.728 8.34667 137.811 7.91733 137.811 7.432V0.24H139.507V7.52C139.507 8.42133 139.312 9.208 138.923 9.88C138.534 10.552 137.992 11.0747 137.299 11.448C136.611 11.816 135.816 12 134.915 12Z" fill="white"/>
<path d="M142.065 11.76V0.24H146.593C147.324 0.24 147.937 0.389333 148.433 0.688C148.929 0.986666 149.302 1.37333 149.553 1.848C149.804 2.31733 149.929 2.81333 149.929 3.336C149.929 3.97067 149.772 4.51467 149.457 4.968C149.148 5.42133 148.729 5.73067 148.201 5.896L148.185 5.504C148.921 5.68533 149.486 6.04 149.881 6.568C150.276 7.09067 150.473 7.70133 150.473 8.4C150.473 9.07733 150.337 9.66667 150.065 10.168C149.798 10.6693 149.406 11.0613 148.889 11.344C148.377 11.6213 147.756 11.76 147.025 11.76H142.065ZM143.761 10.168H146.769C147.148 10.168 147.486 10.096 147.785 9.952C148.089 9.808 148.326 9.60267 148.497 9.336C148.673 9.064 148.761 8.74133 148.761 8.368C148.761 8.02133 148.684 7.70933 148.529 7.432C148.38 7.14933 148.161 6.928 147.873 6.768C147.59 6.60267 147.257 6.52 146.873 6.52H143.761V10.168ZM143.761 4.944H146.569C146.878 4.944 147.156 4.88267 147.401 4.76C147.652 4.632 147.849 4.45067 147.993 4.216C148.142 3.976 148.217 3.688 148.217 3.352C148.217 2.904 148.068 2.536 147.769 2.248C147.47 1.96 147.07 1.816 146.569 1.816H143.761V4.944Z" fill="white"/>
</svg>
